<svg xmlns="http://www.w3.org/2000/svg"
 xmlns:xlink="http://www.w3.org/1999/xlink"
 width="15px" height="23px"  viewBox="0 0 15 23">
<path fill-rule="evenodd"  fill="#ffffff"
 d="M13.99646,11.991455 C13.99646,11.356323 13.740601,10.757996 13.276001,10.30896 C13.276001,10.30896 5.391968,2.6837769 5.391968,2.6837769 C4.4332275,1.7568359 2.8729248,1.7568359 1.9138184,2.6846313 C1.4490967,3.133606 1.1933594,3.730896 1.1933594,4.366211 C1.1933594,5.00177 1.4490967,5.598877 1.9136963,6.0480957 C1.9136963,6.0480957 8.058472,11.991455 8.058472,11.991455 C8.058472,11.991455 1.9138184,17.934204 1.9138184,17.934204 C1.4493408,18.383423 1.1933594,18.980713 1.1933594,19.616028 C1.1933594,20.251404 1.4490967,20.848633 1.9138184,21.297852 C2.378296,21.747314 2.9960938,21.994629 3.6530762,21.994629 C4.3098145,21.994629 4.92749,21.747314 5.391968,21.297852 C5.391968,21.297852 13.276001,13.673523 13.276001,13.673523 C13.740601,13.223633 13.99646,12.626831 13.99646,11.991455 Z"/>
</svg>