<svg xmlns="http://www.w3.org/2000/svg"
 xmlns:xlink="http://www.w3.org/1999/xlink"
 width="15px" height="23px"  viewBox="0 0 15 23">
<path fill-rule="evenodd"  fill="#ffffff"
 d="M1.00354,11.991455 C1.00354,11.356323 1.2593994,10.757996 1.723999,10.30896 C1.723999,10.30896 9.608032,2.6837769 9.608032,2.6837769 C10.566772,1.7568359 12.126953,1.7568359 13.086182,2.6846313 C13.550781,3.133606 13.806641,3.730896 13.806641,4.366211 C13.806641,5.00177 13.550781,5.598877 13.086304,6.0480957 C13.086304,6.0480957 6.9415283,11.991455 6.9415283,11.991455 C6.9415283,11.991455 13.086182,17.934204 13.086182,17.934204 C13.550537,18.383423 13.806641,18.980713 13.806641,19.616028 C13.806641,20.251404 13.550781,20.848633 13.086182,21.297852 C12.621582,21.747314 12.003906,21.994629 11.346924,21.994629 C10.690063,21.994629 10.07251,21.747314 9.608032,21.297852 C9.608032,21.297852 1.723999,13.673523 1.723999,13.673523 C1.2593994,13.223633 1.00354,12.626831 1.00354,11.991455 Z"/>
</svg>